<svg width="32" height="32" xmlns="http://www.w3.org/2000/svg" fill="#FFF">

 <g>
  <title>Layer 1</title>
  <path stroke="null" id="svg_1" d="m12.86303,0.1897c-6.97149,0 -12.6101,5.52038 -12.6101,12.34569c0,6.8253 5.63861,12.34569 12.6101,12.34569c2.48899,0 4.79254,-0.71487 6.74548,-1.92901l9.10987,8.91885l3.15253,-3.08642l-8.99397,-8.78268c1.61683,-2.07652 2.5962,-4.64949 2.5962,-7.46642c0,-6.8253 -5.63861,-12.34569 -12.6101,-12.34569zm0,2.90487c5.34017,0 9.64302,4.21262 9.64302,9.44082c0,5.22819 -4.30285,9.44082 -9.64302,9.44082c-5.34017,0 -9.64302,-4.21262 -9.64302,-9.44082c0,-5.22819 4.30285,-9.44082 9.64302,-9.44082z"/>
 </g>
</svg>