<svg xmlns="http://www.w3.org/2000/svg" xmlns:xlink="http://www.w3.org/1999/xlink" x="0px" y="0px" viewBox="0 0 194 78" style="enable-background:new 0 0 194 78;" xml:space="preserve">
<g transform="translate(-773 -181)">
	<path style="fill:#FFFFFF;" d="M843.7,215.6c1.6,2,2.3,4.3,2.3,7c0,3.9-1.3,7-3.9,9.1c-2.6,2.2-6.3,3.2-11.2,3.2h-22.4v-45.3h21.9c4.6,0,8.1,1,10.7,3c2.6,2,3.9,4.9,3.9,8.7c0,2.7-0.7,4.9-2.1,6.8c-1.4,1.8-3.3,3-5.6,3.6C840,212.2,842.1,213.5,843.7,215.6zM821.1,207.7h6.3c3.2,0,4.7-1.3,4.7-4c0-2.7-1.6-4.1-4.8-4.1h-6.3V207.7z M833.1,220.7c0-2.8-1.6-4.2-4.9-4.2h-7.1v8.3h7.1C831.5,224.8,833.1,223.4,833.1,220.7z"/>
	<path style="fill:#FFFFFF;" d="M867.1,187.5v47.4h-12.6v-47.4H867.1z"/>
	<path style="fill:#FFFFFF;" d="M903.9,200.7c2.8,1.5,5.1,3.6,6.7,6.4c1.6,2.8,2.4,6,2.4,9.8c0,3.8-0.8,7-2.4,9.8c-1.6,2.8-3.9,4.9-6.7,6.4c-2.8,1.5-6,2.2-9.6,2.2s-6.8-0.7-9.7-2.2c-2.9-1.5-5.1-3.6-6.7-6.4c-1.6-2.8-2.4-6-2.4-9.8c0-3.8,0.8-7,2.4-9.8c1.6-2.8,3.9-4.9,6.7-6.4c2.9-1.5,6.1-2.2,9.7-2.2S901,199.3,903.9,200.7z M889.9,211.3c-1.2,1.3-1.7,3.1-1.7,5.6c0,2.5,0.6,4.4,1.7,5.6c1.2,1.3,2.6,1.9,4.4,1.9c1.7,0,3.1-0.7,4.3-2c1.2-1.3,1.7-3.2,1.7-5.6c0-2.4-0.6-4.3-1.7-5.6c-1.2-1.3-2.6-1.9-4.3-1.9C892.5,209.4,891.1,210,889.9,211.3z"/>
	<path style="fill:#FFFFFF;" d="M941.1,200.2c1.9,1.1,3.2,2.6,4.1,4.5V199h12.5v35.5c0,3.3-0.6,6.3-1.9,9.1c-1.3,2.7-3.3,4.9-6,6.5c-2.7,1.6-6.1,2.4-10.2,2.4c-5.6,0-10-1.3-13.3-3.9c-3.3-2.6-5.2-6.2-5.8-10.7H933c0.3,1.2,0.9,2.1,1.9,2.8c1,0.6,2.3,1,4,1c4.3,0,6.4-2.4,6.4-7.1v-5.3c-0.9,1.9-2.3,3.4-4.1,4.5c-1.9,1.1-4,1.6-6.6,1.6c-2.9,0-5.4-0.7-7.7-2.2c-2.3-1.5-4.1-3.6-5.4-6.4c-1.3-2.8-2-6.1-2-9.8c0-3.8,0.7-7,2-9.8c1.3-2.8,3.1-4.9,5.4-6.4c2.3-1.5,4.9-2.2,7.7-2.2C937.1,198.5,939.3,199.1,941.1,200.2zM934,211.5c-1.2,1.3-1.8,3.1-1.8,5.4c0,2.3,0.6,4.2,1.8,5.5s2.8,2,4.8,2c1.9,0,3.4-0.7,4.7-2c1.2-1.3,1.9-3.1,1.9-5.4c0-2.3-0.6-4.1-1.9-5.4c-1.2-1.3-2.8-2-4.7-2C936.8,209.5,935.2,210.2,934,211.5z"/>
	<path style="fill:#84FAB0;" d="M782.7,225.5h2.5v3.1h8.8v3.1h-8.8v3h-2.5V225.5z"/>
	<path style="fill:#84FAB0;" d="M786,215.2c0.7-0.6,1.6-0.9,2.8-0.9h5.2v3.1h-4.8c-0.5,0-0.9,0.1-1.2,0.4c-0.3,0.3-0.4,0.6-0.4,1.1c0,0.5,0.2,0.8,0.5,1.1c0.3,0.3,0.7,0.4,1.3,0.4h4.8v3.2h-11.8v-3.2h4.4c-0.5-0.3-0.9-0.6-1.2-1.1c-0.3-0.5-0.4-1.1-0.4-1.7C785,216.6,785.3,215.8,786,215.2z"/>
	<path style="fill:#84FAB0;" d="M790.1,203.3v5.9c1-0.1,1.5-0.5,1.5-1.3c0-0.3-0.1-0.6-0.2-0.8s-0.3-0.3-0.6-0.4v-3.3c0.6,0.1,1.2,0.4,1.7,0.8s0.9,0.9,1.2,1.5c0.3,0.6,0.4,1.3,0.4,2c0,0.9-0.2,1.7-0.6,2.4c-0.4,0.7-0.9,1.2-1.6,1.6c-0.7,0.4-1.5,0.6-2.5,0.6s-1.8-0.2-2.4-0.6c-0.7-0.4-1.2-0.9-1.6-1.6s-0.6-1.5-0.6-2.4c0-0.9,0.2-1.7,0.5-2.4c0.4-0.7,0.9-1.2,1.6-1.6c0.7-0.4,1.5-0.6,2.3-0.6C789.6,203.2,789.8,203.3,790.1,203.3z M787.8,206.8c-0.2,0.3-0.4,0.6-0.4,1c0,0.4,0.1,0.8,0.4,1c0.2,0.3,0.6,0.4,1,0.5v-2.8C788.3,206.4,788,206.5,787.8,206.8z"/>
</g>
</svg>
